<svg xmlns="http://www.w3.org/2000/svg" width="32" height="32"><path d="M16 0C7.17 0 0 7.17 0 16s7.17 16 16 16 16-7.17 16-16S24.83 0 16 0zm0 .969C24.307.969 31.031 7.693 31.031 16S24.307 31.031 16 31.031.969 24.307.969 16 7.693.969 16 .969zm6.469 8.156a.47.47 0 0 0-.313.469V11H20.75a.47.47 0 0 0-.063 0 .47.47 0 0 0 .063.938h1.406v1.406a.47.47 0 1 0 .938 0v-1.406H24.5a.47.47 0 1 0 0-.938h-1.406V9.594a.47.47 0 0 0-.469-.469.47.47 0 0 0-.125 0 .47.47 0 0 0-.031 0zM15.562 11c-1.812 0-3.28 1.5-3.28 3.313a3.28 3.28 0 0 0 3.28 3.28c1.813 0 3.313-1.468 3.313-3.28 0-1.813-1.5-3.313-3.313-3.313zm0 .938a2.384 2.384 0 0 1 2.376 2.374c0 1.305-1.071 2.344-2.375 2.344a2.33 2.33 0 0 1-2.344-2.343c0-1.305 1.039-2.376 2.344-2.376zm0 6.593c-3.6 0-6.562 2.492-6.562 5.657h.938c0-2.569 2.45-4.72 5.624-4.72 3.175 0 5.657 2.151 5.657 4.72h.937c0-3.165-2.992-5.657-6.593-5.657z" color="#000" font-family="Sans" font-weight="400" overflow="visible" style="text-indent:0;text-align:start;line-height:normal;text-transform:none;block-progression:tb;marker:none;-inkscape-font-specification:Sans"/></svg>